<?xml version="1.0"?>
<svg xmlns="http://www.w3.org/2000/svg" id="Layer_1" enable-background="new 0 0 256 256" height="512px" viewBox="0 0 256 256" width="512px" class=""><g><g><path d="m10.1 80.1h205c4.2 0 7.6 3.4 7.6 7.6v126c0 4.2-3.4 7.6-7.6 7.6h-205c-4.2 0-7.6-3.4-7.6-7.6v-126c0-4.2 3.4-7.6 7.6-7.6z" fill="#3caadc" data-original="#3CAADC" class="active-path" style="fill:#007CFE" data-old_color="#3caadc"/><g fill="#9be5f9"><path d="m47.1 99.7s-3.2.6-2.6 3.2-2.6 6.4.6 7 3.2-2.6 6.4-1.3 5.1 2.6 5.1 4.5 4.5 3.2 4.5 5.8-.6 8.3 3.8 10.2c2 .8 3.5 2.6 3.8 4.8.2 1.4 1.1 2.5 2.3 3.1 1.2.5 2.5.8 3.8.8 0 0-2.6-1.9-1.3-6.4s3.8-2.6 5.8-4.5 6.4-1.9 7.7-5.1 3.8-2.6 5.1-7-2.6-5.1-3.8-6.4-8.3-2.6-9.6-5.8-5.1-1.3-7-1.3-7 0-9-1.3-12.1-2.5-15.6-.3z" data-original="#9BE5F9" class=""/><path d="m99.2 148.7c-3.8-.6-2.6-5.1-5.1-5.1-2.2 0-4.3-1-5.8-2.6-1.3-1.3-5.1-.6-5.1-.6s0 1.9-1.3 1.9 1.3 5.1-.6 7-.2 3.1 1.3 4.5c3.2 3.2.6 11.5 1.9 14.1s-1.3 5.1-1.3 7.7c0 2.2-1 6 1.8 8.6.7.7 1.8.8 2.6.2h.1c1-.7 1.2-2 .5-3 0-.1-.1-.1-.1-.2-.7-.9-.8-2.2-.4-4.9.6-4.5 8.3-8.3 8.3-10.9s4.5-1.3 4.5-5.8 1.9-5.1 2.6-7 0-3.3-3.9-3.9z" data-original="#9BE5F9" class=""/><path d="m177.1 147.9s.7-1.3 2 0 4 2.7 5.4 1.3 0-4.7 1.3-4c.8.4 1.3 1.2 1.3 2 0 1.3 0 2 .7 2.7s2 .7 2 2 2 2 .7 4.7 0 3.4-2 5.4-2.7.7-4 0-1.3-3.4-3.4-4-2.7 2.7-4.7 2-4.7 1.3-4.7 0 .7-2.7 0-4.7-.7-4 1.3-4 4.1-3.4 4.1-3.4z" data-original="#9BE5F9" class=""/><path d="m95.2 99.3c-1.7 5.1.5 8.4 4 9.5s-.6-3.4 7.5-6.3 0-6.9 3.4-10.3c3-3-3.2-3.8-6-2.8-1 .4-2.1.5-3.2.4-2-.1-4.8-.2-6.9-.2-6.2 0 2.6 5.4 1.2 9.7z" data-original="#9BE5F9" class=""/><path d="m134 99c.5.5 1.2.9 1.7 1.4 4.7 4.7 9.4-2.7 13.5-1.3s7.4-7.4 15.5-7.4 9.4 5.4 15.5 5.4 7.4-1.3 11.5 0 4 3.4 7.4 3.4h3.5c.8 0 1.4.6 1.4 1.4 0 .5-.3 1-.7 1.2h-.1c-2.7 1.3-2 4-4.7 4s-6.7.7-11.5 0-1.3 4.7-2.7 6.7-4.7 5.4-4.7 8.1-3.4-2.7-6.1 0c0 0-.7 3.4 1.3 5.4s.7 4.7-3.4 6.1c-2.4.8-2.9 2.1-2.9 3 0 .7-.3 1.4-.8 1.9-1.6 1.5-2.2 3.8-1.5 5.9.1.3-.1.6-.3.7-.1 0-.3 0-.4 0-1.4-.9-3.4-2.5-3.4-4.7 0-3.4 1.3-5.4-.7-7.4-1.5-1.5-3.9 1.6-5.2 3.5-.5.7-.8 1.5-.9 2.4-.1.7-.2 1.4-.4 2.1-.2.4-.7.7-1.1.5-.2-.1-.4-.2-.5-.4-1.1-2-3-5.7-4-8.1-1.3-3.4-4-4-5.4-2.7s1.3 4 0 5.4-6.1 3.4-6.1 4.7 3.4.7 3.4 1.3-6.1 4.7-6.1 8.1 2 5.4-2 8.8-.7 7.4-6.7 10.1c0 0-2.7-2-2.7-4s-.7-6.1-2-7.4 1.3-4.7-1.3-8.8-1.3-5.4-3.4-5.4-5.4 2.7-8.8-2.7 0-8.8 2-10.8 2-5.4 5.4-5.4 4 0 7.4 2 4.7 4 7.4 2.7 4-4 2.7-5.4-4.7-4-6.1-2.7-2.7-2-4.7-2-4.7-2-6.7 0-4 2-5.4.7-1.3-6.1.7-7.4 3.4 2 6.7.7 3.4.7 6.7-1.3 6.1 0 7.4-2.7 2-5.4-.7-5.4c0 0-2.6.6-3.9 0-.8-.4-3.3-.7-3.3.7s0 4-2.7 4-6-1.3-4.7-4c.4-.8 5.3-3.3 6.7-6s7.8-2.3 10.9 1.1z" data-original="#9BE5F9" class=""/></g><path d="m245.9 35.1h-205c-4.2 0-7.6 3.4-7.6 7.6v37.4h181.9c4.2 0 7.6 3.4 7.6 7.6v88.6h23.1c4.2 0 7.6-3.4 7.6-7.6v-126c0-4.2-3.4-7.6-7.6-7.6z" fill="#edf4fc" data-original="#EDF4FC" class=""/><path d="m33.2 57.1h220.3v23h-220.3z" fill="#29589f" data-original="#29589F" class=""/><path d="m30.2 129.4h18c3.6 0 6.5 2.9 6.5 6.5v18c0 3.6-2.9 6.5-6.5 6.5h-18c-3.6 0-6.5-2.9-6.5-6.5v-18c0-3.6 3-6.5 6.5-6.5z" fill="#f5c84c" data-original="#F5C84C"/><path d="m158 186.2c0-6.4 3.4-12.3 8.9-15.6-8.6-5.2-19.8-2.4-25 6.2s-2.4 19.8 6.2 25c5.8 3.5 13 3.5 18.8 0-5.5-3.3-8.9-9.2-8.9-15.6z" fill="#fc657e" data-original="#FC657E"/><path d="m176.3 168c-3.3 0-6.5.9-9.3 2.6 8.6 5.1 11.5 16.3 6.3 24.9-1.5 2.6-3.7 4.8-6.3 6.3 8.6 5.2 19.8 2.4 25-6.3 5.2-8.6 2.4-19.8-6.3-25-2.9-1.6-6.1-2.5-9.4-2.5z" fill="#f5c84c" data-original="#F5C84C"/><path d="m175.8 186.2c0-6.4-3.4-12.3-8.9-15.6-8.6 5.1-11.5 16.3-6.3 24.9 1.5 2.6 3.7 4.8 6.3 6.3 5.5-3.3 8.9-9.2 8.9-15.6z" fill="#fc8c48" data-original="#FC8C48"/><path d="m37.7 14.8h-2.1v-2.1c0-1.5-1.3-2.8-2.8-2.8s-2.8 1.3-2.8 2.8v2.1h-2.1c-1.5 0-2.8 1.3-2.8 2.8s1.3 2.8 2.8 2.8h2.1v2.1c0 1.5 1.3 2.8 2.8 2.8s2.8-1.3 2.8-2.8v-2.1h2.1c1.5 0 2.8-1.3 2.8-2.8s-1.3-2.8-2.8-2.8z" fill="#70d6f9" data-original="#70D6F9"/><path d="m241.8 193.7c-2.4-.4-4.3-2.3-4.8-4.7 0-.1-.1-.1-.1-.1s-.1 0-.1.1c-.5 2.4-2.4 4.2-4.8 4.7-.1 0-.1 0-.1.1s0 .1.1.1c2.4.4 4.3 2.3 4.8 4.7 0 .1.1.1.1.1s.1 0 .1-.1c.5-2.4 2.4-4.2 4.8-4.7.1 0 .1 0 .1-.1s0-.1-.1-.1z" fill="#70d6f9" data-original="#70D6F9"/><path d="m171.8 237.8c-4-.7-7.1-3.8-7.9-7.7 0-.1-.1-.2-.2-.1-.1 0-.1.1-.1.1-.8 4-3.9 7-7.9 7.7-.1 0-.2.1-.2.2s.1.1.2.2c4 .7 7.1 3.8 7.9 7.7 0 .1.1.2.2.1.1 0 .1-.1.1-.1.8-4 3.9-7 7.9-7.7.1 0 .2-.1.2-.2s-.1-.2-.2-.2z" fill="#f5c84c" data-original="#F5C84C"/><circle cx="191" cy="233" fill="#fc657e" r="3" data-original="#FC657E"/><circle cx="86" cy="21" fill="#f5c84c" r="3" data-original="#F5C84C"/><circle cx="15" cy="37" fill="#87d147" r="3" data-original="#87D147"/><path d="m53.7 142.1h-18.3c-1.4 0-2.5-1.1-2.5-2.5v-9.7c0-1.4 1.1-2.5 2.5-2.5s2.5 1.1 2.5 2.5v7.2h15.9c1.4 0 2.5 1.1 2.5 2.5s-1.2 2.5-2.6 2.5z" data-original="#000000" class="" style="fill:#000000"/><path d="m35.4 162.4c-1.4 0-2.5-1.1-2.5-2.5v-9.7c0-1.4 1.1-2.5 2.5-2.5h18.4c1.4 0 2.5 1.1 2.5 2.5s-1.1 2.5-2.5 2.5h-15.9v7.2c0 1.4-1.2 2.5-2.5 2.5z" data-original="#000000" class="" style="fill:#000000"/><path d="m42.2 151.8c-1.4 0-2.5-1.1-2.5-2.5v-8.9c0-1.4 1.1-2.5 2.5-2.5s2.5 1.1 2.5 2.5v8.9c0 1.3-1.1 2.5-2.5 2.5z" data-original="#000000" class="" style="fill:#000000"/><path d="m61.7 175.3h-36.6c-1.4 0-2.5-1.1-2.5-2.5s1.1-2.5 2.5-2.5h36.5c1.4 0 2.5 1.1 2.5 2.5s-1 2.5-2.4 2.5z" data-original="#000000" class="" style="fill:#000000"/><path d="m46.3 185.5h-21.2c-1.4 0-2.5-1.1-2.5-2.5s1.1-2.5 2.5-2.5h21.2c1.4 0 2.5 1.1 2.5 2.5s-1.1 2.5-2.5 2.5z" data-original="#000000" class="" style="fill:#000000"/><path d="m245.9 178.8h-23.1c-1.4 0-2.5-1.1-2.5-2.5v-88.6c0-2.8-2.3-5.1-5.1-5.1h-182c-1.4 0-2.5-1.1-2.5-2.5v-37.4c0-5.6 4.5-10.1 10.1-10.1h205c5.6 0 10.1 4.5 10.1 10.1v126c.1 5.6-4.4 10.1-10 10.1zm-20.6-5h20.6c2.8 0 5.1-2.3 5.1-5.1v-126c0-2.8-2.3-5.1-5.1-5.1h-205c-2.8 0-5.1 2.3-5.1 5.1v34.9h179.4c5.6 0 10.1 4.5 10.1 10.1z" data-original="#000000" class="" style="fill:#000000"/><path d="m253.5 82.6h-220.3c-1.4 0-2.5-1.1-2.5-2.5v-23c0-1.4 1.1-2.5 2.5-2.5h220.3c1.4 0 2.5 1.1 2.5 2.5v23c0 1.4-1.1 2.5-2.5 2.5zm-217.8-5h215.3v-18h-215.3z" data-original="#000000" class="" style="fill:#000000"/><path d="m215.1 223.8h-205c-5.6 0-10.1-4.5-10.1-10.1v-126c0-5.6 4.5-10.1 10.1-10.1h205c5.6 0 10.1 4.5 10.1 10.1v126c.1 5.6-4.5 10.1-10.1 10.1zm-205-141.2c-2.8 0-5.1 2.3-5.1 5.1v126c0 2.8 2.3 5.1 5.1 5.1h205c2.8 0 5.1-2.3 5.1-5.1v-126c0-2.8-2.3-5.1-5.1-5.1z" data-original="#000000" class="" style="fill:#000000"/><path d="m48.2 162.9h-18c-5 0-9-4-9-9v-18c0-5 4-9 9-9h18c5 0 9 4 9 9v18c0 4.9-4 9-9 9zm-18-31c-2.2 0-4 1.8-4 4v18c0 2.2 1.8 4 4 4h18c2.2 0 4-1.8 4-4v-18c0-2.2-1.8-4-4-4z" data-original="#000000" class="" style="fill:#000000"/><path d="m157.6 206.9c-11.4 0-20.7-9.2-20.8-20.7 0-11.4 9.2-20.7 20.7-20.8 3.8 0 7.5 1 10.7 3 1.2.7 1.6 2.2.9 3.4-.2.4-.5.6-.9.9-7.4 4.4-9.9 14.1-5.5 21.5 1.3 2.2 3.2 4.1 5.5 5.5 1.2.7 1.6 2.2.9 3.4-.2.4-.5.6-.9.9-3.2 1.9-6.9 2.9-10.6 2.9zm0-36.4c-8.7 0-15.7 7-15.7 15.7s7 15.7 15.7 15.7c1.5 0 3-.2 4.5-.7-8.3-7.8-8.7-20.9-.9-29.3l.9-.9c-1.5-.3-3-.5-4.5-.5z" data-original="#000000" class="" style="fill:#000000"/><path d="m176.3 206.9c-3.7 0-7.4-1-10.6-3-1.2-.7-1.6-2.2-.9-3.4.2-.4.5-.6.9-.9 7.4-4.4 9.9-14.1 5.5-21.5-1.3-2.2-3.2-4.1-5.5-5.5-1.2-.7-1.6-2.2-.9-3.4.2-.4.5-.6.9-.9 9.8-5.9 22.5-2.7 28.4 7.1s2.7 22.5-7.1 28.4c-3.3 2.1-7 3.1-10.7 3.1zm-4.5-5.7c1.4.4 3 .7 4.5.7 8.7 0 15.7-7 15.7-15.7s-7-15.7-15.7-15.7c-1.5 0-3 .2-4.5.7 8.3 7.8 8.7 20.9.9 29.3-.3.2-.6.5-.9.7z" data-original="#000000" class="" style="fill:#000000"/><path d="m166.9 204.3c-.5 0-.9-.1-1.3-.4-9.8-5.8-13-18.5-7.2-28.3 1.8-2.9 4.2-5.4 7.2-7.2.8-.5 1.8-.5 2.6 0 9.8 5.8 13 18.5 7.2 28.3-1.8 2.9-4.2 5.4-7.2 7.2-.4.3-.8.4-1.3.4zm0-30.7c-7 5.1-8.5 14.9-3.3 21.9.9 1.3 2.1 2.4 3.3 3.3 7-5.1 8.5-14.9 3.3-21.9-.9-1.3-2-2.4-3.3-3.3z" data-original="#000000" class="" style="fill:#000000"/><path d="m81.3 144.8c-.2 0-.3 0-.5 0-1.9-.4-3.4-1.6-4.4-3.3-.7-1.1-.9-1.2-1.6-1.2-1.4 0-2.5-1.1-2.5-2.5s1.1-2.5 2.5-2.5c2.4 0 4.6 1.3 5.7 3.4.6.9.8 1.1 1.2 1.2 1.4.3 2.2 1.6 2 2.9-.2 1.1-1.2 2-2.4 2z" data-original="#000000" class="" style="fill:#000000"/><path d="m74.9 140.3c-1.7 0-3.3-.3-4.8-1-2-.9-3.5-2.8-3.8-5-.2-1.3-1.1-2.4-2.3-2.9-5.6-2.4-5.4-8.7-5.4-11.7 0-.3 0-.6 0-.8-.5-.5-1-.9-1.5-1.3-1.3-1-3-2.3-3-4.4 0 0 0-.8-3.6-2.2-.1-.1-.3-.1-.5-.1-.1 0-.3.2-.5.3-1.4 1.1-3.2 1.6-5 1.2-1.2-.2-2.2-.9-2.9-1.9-1-1.6-.5-3.5-.1-5 .2-.6.4-1.3.4-2-.3-1.3-.1-2.6.5-3.7.8-1.2 2.1-2.1 3.5-2.4 4.6-2.5 15.3-1.2 18 .6.4.3 1.9.9 7.6.9.4 0 .8-.1 1.2-.2 1.9-.4 6.4-1.3 8.1 3.1.4 1.1 3.7 2.3 5.2 2.9 1.4.4 2.7 1.1 3.8 2 .2.2.5.3.8.5 1.6.9 5.2 3.1 3.7 8.4-.6 2.2-1.9 4.2-3.7 5.5-.7.4-1.2 1-1.5 1.8-1.2 2.9-3.9 4-6 4.8-.8.3-1.6.6-2.3 1.1-1 .9-2.2 1.5-3.5 1.8-1 .2-1.2.3-1.6 1.7-.7 2.6.3 3.7.5 3.8.9.6 1.3 1.7.9 2.7 0 .8-1.1 1.5-2.2 1.5zm-15.8-27.5c.3.3.7.6 1.1.9 1.5 1.1 3.4 2.7 3.4 5.3v.9c-.1 3.1.1 6 2.3 7 2.3.9 4.2 2.9 4.9 5.3.1-.5.2-.9.3-1.4 1.1-3.9 3.3-4.7 5.3-5.2.7-.1.9-.2 1.1-.4 1.2-1 2.5-1.8 4-2.3 1.7-.7 2.8-1.2 3.1-2 .6-1.5 1.6-2.8 3-3.8 1-.7 1.8-1.8 2.1-3 .4-1.5.1-1.8-1.5-2.7-.6-.3-1.2-.7-1.7-1.2-.7-.4-1.4-.7-2.2-.9-3-1.2-6.8-2.6-8.1-5.7 0-.1-.1-.2-.1-.2-.8-.1-1.6 0-2.4.2-.7.2-1.5.3-2.2.3-3.9 0-8.1-.2-10.4-1.7-1.7-1-10.6-1.8-13-.3-.3.2-.5.3-.8.3-.2.1-.4.1-.6.3.2 1.5.1 3-.4 4.5 0 .2-.1.3-.1.5.1-.1.2-.2.4-.3 1.6-1.3 3.8-1.6 5.7-.8 2.3.8 6.6 2.5 6.8 6.4z" data-original="#000000" class="" style="fill:#000000"/><path d="m86.5 187.2c-1.2 0-2.3-.4-3.1-1.3-3.1-2.9-2.8-6.8-2.6-9.1 0-.5.1-.9.1-1.3.1-1.4.4-2.7 1-4 .5-1.3.8-2.1.5-2.6-.8-1.6-.7-3.8-.6-6.3s.3-6-.9-7.2c-.2-.2-.3-.3-.5-.5-1-.9-2.3-2.2-2.4-4.1 0-1.3.6-2.5 1.5-3.4.1-.9 0-1.8-.2-2.7-.3-1.5-.5-2.9.5-4.1.3-.3.6-.6 1-.7.1-1.1 1-2 2.1-2.1 1.5-.3 5.3-.6 7.3 1.3 1 1.1 2.5 1.8 4 1.8 2.9 0 3.8 2.4 4.3 3.6.5 1.3.7 1.5 1.2 1.5 2 .3 4.4 1 5.5 2.9.7 1.3.8 2.8.3 4.2-.3.8-.7 1.6-1.2 2.3-.9 1.1-1.3 2.6-1.2 4 .1 2.7-1.6 5.2-4.1 6.1-.1.1-.3.1-.4.2-.3 2-2 3.6-4.1 5.5-1.8 1.6-4 3.7-4.2 5.2-.4 2.7-.1 3-.1 3 .8 1 1.2 2.4 1 3.7s-.9 2.4-2 3.1c-.9.8-1.8 1-2.7 1zm-3.3-36.3c.2.2.4.4.5.5.2.2.4.4.6.6 2.7 2.7 2.5 7.3 2.3 10.9-.1 1.3-.1 2.5.1 3.8.8 1.6.8 3.5.2 5.2 1.2-1.6 2.6-3.1 4.1-4.4.9-.8 1.7-1.6 2.5-2.5.1-2.5 2.2-3.5 3.2-4 1.1-.5 1.3-.6 1.3-1.6-.1-2.5.6-4.9 2.1-6.9.2-.3.4-.6.6-1v-.1c-.6-.2-1.3-.4-1.9-.5-3.5-.6-4.5-3.2-5.1-4.7-.1-.1-.1-.3-.2-.4-2.6-.2-5.1-1.3-6.9-3.2-.5-.1-1-.2-1.5-.2-.2.5-.6.9-1 1.3v.1c.5 2.2 1 5.1-.9 7.1z" data-original="#000000" class="" style="fill:#000000"/><path d="m186.7 165.6c-1 0-2-.4-2.8-1-.2-.1-.3-.2-.5-.3-1.1-.6-2-1.6-2.4-2.8-.1-.2-.2-.5-.4-.7l-.1.1c-.8.8-2.4 2.4-4.9 1.6-.5 0-1.1.1-1.6.3-1.2.5-2.6.4-3.7-.3-.7-.6-1.1-1.4-1.1-2.4 0-.6.1-1.1.2-1.7.2-.7.2-1.5 0-2.2-.8-2.4-.7-4.3.3-5.7.8-1.1 2-1.7 3.3-1.6.8-.6 1.5-1.3 2-2.1.5-1 1.5-1.6 2.5-1.8 1.3-.2 2.6.3 3.4 1.3.5.5 1.1.9 1.8 1.1 0-.3 0-.6 0-.8-.2-1.3.3-2.6 1.4-3.4.9-.5 2-.6 2.9-.1 1.6.8 2.7 2.4 2.7 4.3v.9h.1c1.4.6 2.4 1.9 2.6 3.5 0 .1.1.1.1.2 1.3 1.7 1.4 4 .3 5.9-.3.5-.5 1.2-.5 1.8-.1 1.6-.8 3.2-2 4.3-.9.9-2.2 1.5-3.6 1.6zm-.8-5.7c.3.2.6.4.8.5 0 0 .1-.1.1-.1.4-.3.6-.7.6-1.2.1-1.2.4-2.4 1-3.5.1-.2.2-.4.2-.6-.1-.2-.2-.3-.3-.4-.4-.6-.7-1.2-.8-1.9-.5-.2-1-.5-1.3-.9-.1-.1-.2-.2-.3-.3-1.4 1-3.2 1.2-4.8.6-1-.3-1.9-.8-2.7-1.4-1.1 1.6-2.7 2.7-4.5 3.2.1.3.1.6.2.8.3.9.5 1.9.4 2.9.7-.1 1.5-.1 2.2.1l.3-.3c.8-.8 2.4-2.4 4.9-1.6 1.6.7 2.9 2 3.5 3.6.2.1.4.4.5.5z" data-original="#000000" class="" style="fill:#000000"/><path d="m100.1 111.5c-.6 0-1.1-.1-1.7-.3-4.4-1.5-7.8-6-5.5-12.7.3-.8-1-2.6-1.7-3.7-1.2-1.8-2.5-3.7-1.4-5.7s3.6-2 4.4-2c2.1 0 4.9.1 7 .2.8 0 1.5-.1 2.2-.3 2.4-.9 7.8-1 9.6 1.8.4.6 1.4 2.7-1 5.1-.2.2-.3.3.3 1.9.5 1.4 1.2 3.3.3 5.3-.8 1.6-2.3 2.8-4.9 3.7-3.4 1.2-3.8 2.5-4.1 3.6-.2 1.1-.8 2.1-1.8 2.7-.6.3-1.2.4-1.7.4zm-4.7-19.4c1.4 2.1 3.3 4.9 2.2 8-.9 2.8-.4 4.8 1.4 5.9.6-1.7 2.2-4.2 6.9-5.8 1.8-.6 2.1-1.1 2.1-1.1-.1-.5-.2-1-.4-1.5-.5-1.4-1.4-3.8 0-6.1-.8-.1-1.7 0-2.5.2-1.3.5-2.7.7-4.1.6-1.8-.1-3.9-.1-5.6-.2z" data-original="#000000" class="" style="fill:#000000"/><path d="m126.3 171c-.5 0-1.1-.2-1.5-.5-.6-.5-3.7-2.9-3.7-6 0-2.1-.8-5.1-1.3-5.6-1.4-1.4-1.2-3.3-1-4.7.4-1.5.2-3.1-.7-4.5-.9-1.3-1.6-2.7-2-4.1h-.2c-2.1.5-6.4 1.7-10-4.1-4.4-7.1.3-11.8 2.4-13.9.5-.5.9-1.1 1.2-1.8.5-1.2 1.3-2.3 2.3-3.1-1.3-.1-2.6-.7-3.5-1.7-1.5-1.5-1.8-4.1-1.6-6.1.1-2 1.1-3.9 2.7-5.2 1.6-1 3.6-1 5.2.1 1 .5 1.3.6 2 .3.4-.2.8-.3 1.3-.4-1.5-.4-2.8-1.3-3.6-2.6-.9-1.4-.9-3.2-.1-4.6.4-.9 1.2-1.4 2.6-2.4 1.3-.9 3.5-2.5 4.1-3.6 1-1.7 2.8-2.9 4.8-3 3.8-.4 7.6.9 10.3 3.7.2.1.3.3.5.4.4.3.8.6 1.1.9 1.3 1.3 2.3 1.1 5.3-.5 2.1-1.1 4.5-2.4 7.2-1.5.5.2 2.2-1.3 3.2-2.2 2.6-2.3 6.2-5.4 11.5-5.4 3.7 0 7.3 1.2 10.3 3.4 1.8 1.2 3.1 2 5.2 2 1.7 0 3.4-.1 5.1-.4 2.4-.5 4.9-.3 7.2.5 1.6.5 3.1 1.3 4.4 2.3.6.6 1.4.9 2.3.9h3.5c1.8 0 3.4 1.2 3.8 3 .4 1.7-.4 3.6-2 4.4l-.1.1c-.5.3-.7.6-1.2 1.3-.8 1.8-2.6 3-4.6 3-.7 0-1.6.1-2.6.1-3 .3-6 .2-9-.1 0 .3.1.6.1.8.2 1.5.4 3.3-.6 4.8-.4.6-.9 1.2-1.4 1.9-1.1 1.4-2.9 3.6-2.9 4.8.1 1.2-.5 2.3-1.5 2.9-1.5.9-3 0-3.9-.5-.2-.1-.5-.3-.7-.4 0 .6.3 1.2.7 1.7 1.3 1.3 1.9 3.1 1.5 4.9-.5 2.3-2.7 4.2-5.9 5.3-.5.1-.9.3-1.2.7 0 1.4-.6 2.7-1.6 3.6-1 .8-1.3 2.2-.9 3.4.5 1.6-.4 3.3-2 3.8-.8.3-1.7.1-2.5-.3-2.9-1.8-4.6-4.2-4.6-6.8 0-1.1.1-2.1.3-3.2.1-.5.1-1 .2-1.5-.7.7-1.3 1.4-1.8 2.2-.3.4-.4.8-.5 1.2-.1.9-.3 1.8-.6 2.7-.4 1.2-1.6 2.1-2.9 2.2s-2.6-.6-3.2-1.8c-1.1-2-3.1-5.9-4.1-8.4-.1-.3-.3-.6-.4-.8.6 1.5.2 3.2-.9 4.4-.9.8-2 1.5-3.1 2.1.7.5 1.1 1.3 1.1 2.2 0 1.3-.8 2-2.2 3.3-1 .9-3.9 3.5-3.9 4.8 0 .7.1 1.3.2 2 .4 2.2.9 5.3-3.2 8.7-.9.8-1.5 2-1.6 3.3-.4 3.3-2.6 6.1-5.7 7.2-.5.3-.8.4-1.1.4zm-2.7-15.4c2 2.4 2.4 7.2 2.4 8.8.1.4.3.7.6 1 1-.8 1.2-1.6 1.5-2.9.3-2.3 1.5-4.5 3.3-6 1.9-1.6 1.8-2.1 1.4-4-.2-.9-.3-1.9-.3-2.9 0-2.7 2-5.1 3.9-7-.8-.6-1.2-1.5-1.2-2.5 0-2.2 2.2-3.6 4.7-5.1.5-.3 1.2-.7 1.7-1.1-.1-.2-.1-.3-.2-.5-.4-1.2-1.2-3.5.6-5.3 1.2-1.1 2.8-1.6 4.4-1.3 2.2.4 4 2.2 5.1 4.8.5 1.1 1.2 2.6 1.9 4 .2-.4.4-.8.6-1.1 2.9-4.2 4.9-4.8 6.1-4.9 1.1-.1 2.2.3 3 1.1 2.3 2.3 1.9 4.7 1.6 6.7v.3c.4-.6.8-1.1 1.3-1.5 0 0 .1-.1.1-.1 0-1.1.4-3.9 4.6-5.3 1.9-.6 2.5-1.4 2.6-1.7-.1-.1-.1-.2-.2-.2-2.9-2.9-2.1-7.2-2-7.6.1-.5.3-.9.7-1.3 1.5-1.6 4-2 5.9-1 .9-1.9 2-3.6 3.3-5.1.4-.5.8-1.1 1.1-1.5 0-.5 0-1.1-.1-1.6-.2-1.6-.5-3.8 1.1-5.3 1.2-1 2.7-1.4 4.2-1.1 2.7.3 5.5.4 8.2.1 1-.1 2-.1 2.9-.1.1-.1.2-.3.3-.5.2-.4.5-.8.8-1.2h-.5c-1.9 0-3.8-.6-5.2-1.9-2.2-1.8-5.2-2.5-7.9-1.9-1.9.3-3.8.4-5.7.4-3.6 0-5.9-1.5-7.9-2.8-2.1-1.4-4-2.6-7.6-2.6-3.5 0-5.9 2.1-8.3 4.2-2.3 2-4.8 4.2-8 3.1-.7-.2-2.1.5-3.3 1.2-2.4 1.2-6.3 3.3-10 .5.8 2.1-.2 4.7-1.2 6.5-1.4 2.8-3.8 2.9-5.4 3-1 0-2.1.2-3 .7-1.5 1-3.3 1.5-5.1 1.2-.7-.1-1.4 0-2 .3-.4.2-.8.3-1.2.4 1.2 0 2.4.2 3.5.6.5.2.9.3 1.4.3 1.6.1 3 .8 4.1 2 1.1-.5 2.7-.6 4.9.7 1.3.8 2.5 1.7 3.6 2.8 1 1 1.5 2.5 1.2 3.9-.6 2.4-2.3 4.5-4.5 5.5-3.4 1.7-5.7 0-7.8-1.4-.6-.4-1.3-.9-2-1.4-2.8-1.7-3-1.7-6.1-1.7-.6 0-.7 0-1.6 1.7-.5 1.1-1.2 2.1-2 3-2.4 2.4-3.8 4.2-1.7 7.7 1.6 2.6 2.6 2.4 4.5 1.9.7-.2 1.4-.3 2.2-.4 1.9-.1 3.6 1.3 3.9 3.2.3 1.2.9 2.3 1.6 3.3 1.5 2.3 2 5.2 1.5 7.9-.2.5-.2.8-.3 1zm-7.7-34.1c3.4 0 4.6.2 8.3 2.4.9.5 1.7 1.1 2.3 1.6 2 1.4 2.1 1.3 2.7 1.1.8-.3 1.4-.9 1.8-1.6-.8-.8-1.8-1.5-2.8-2-1.5 1.1-3.2.7-5.2-1-.3-.3-.6-.5-.9-.7-.9-.1-1.8-.2-2.7-.5-1.6-.5-1.9-.4-2.2-.2-.4.2-.8.6-1.3.9zm-4-3.9c.4.3 1 .1 1.8-.7.7-.7 1.6-1.2 2.6-1.5-1.4 0-2.8-.3-4-1-.1-.1-.2-.1-.3-.2-.4 1.1-.5 2.3-.1 3.4zm14.2-12.2c-.1.9-.4 1.8-.9 2.7 1-.3 2-.4 3-.4.4 0 .8 0 1.1-.1 0 0 0-.1.1-.1.3-.5.5-1 .7-1.6-1.4.1-2.7 0-4-.5zm-7.2-.5c.7.3 1.4.4 2.2.4.1-.5.1-1 .1-1.5 0-.2 0-.4.1-.6-.6.4-1.1.8-1.6 1.2-.3.1-.6.3-.8.5zm6.4-4.6c1 0 1.9.2 2.8.6.7.1 1.5 0 2.2-.2.6-.1 1.2-.1 1.8.1l-.1-.1c-1.4-1.3-3.2-2.1-5.1-2.1-.6-.1-1.3.1-1.8.4-.3.5-.6 1-.9 1.4.4-.1.8-.1 1.1-.1z" data-original="#000000" class="" style="fill:#000000"/></g></g> </svg>
